<?xml version="1.0" encoding="iso-8859-1"?>
<!-- Generator: Adobe Illustrator 19.0.0, SVG Export Plug-In . SVG Version: 6.00 Build 0)  -->
<svg version="1.1" id="Capa_1" xmlns="http://www.w3.org/2000/svg" xmlns:xlink="http://www.w3.org/1999/xlink" x="0px" y="0px"
	 viewBox="0 0 512 512" style="enable-background:new 0 0 512 512;" xml:space="preserve">
<path style="fill:#FFC850;" d="M400,250v110c0,11.046-8.954,20-20,20c-3.647,0-7.056-0.992-10-2.697V420c0,11.046-8.954,20-20,20
	s-20-8.954-20-20V310c0-11.046,8.954-20,20-20c3.647,0,7.056,0.992,10,2.697V250c0-11.046,8.954-20,20-20S400,238.954,400,250z"/>
<path style="fill:#FA9E39;" d="M110,210c11.046,0,20,8.954,20,20v42.698c2.944-1.705,6.353-2.697,10-2.697c11.046,0,20,8.954,20,20
	v110c0,11.046-8.954,20-20,20s-20-8.954-20-20v-42.697c-2.944,1.705-6.353,2.697-10,2.697c-11.046,0-20-8.954-20-20V230
	C90,218.954,98.954,210,110,210z"/>
<path style="fill:#FFC850;" d="M451.284,80.487c5.32,5.326,10.377,10.816,15.173,16.455c10.985,12.916,12.613,31.43,4.23,46.19
	L264.099,506.909c-3.855,6.788-13.583,6.788-17.438,0L41.303,145.298c-8.317-14.645-6.753-32.972,3.996-45.914
	c6.827-8.22,14.202-16.135,22.132-23.692C175.275-27.083,345.978-24.918,451.284,80.487z"/>
<path style="fill:#FFDC64;" d="M277.74,482.888L91.418,154.797c-13.726-24.169-11.146-54.415,6.595-75.775
	c11.267-13.566,23.438-26.628,36.526-39.101c8.163-7.78,16.547-15.191,25.126-22.242C257.768-19.31,372.723,1.852,451.284,80.487
	c5.32,5.326,10.377,10.816,15.173,16.455c10.984,12.916,12.612,31.43,4.23,46.19L277.74,482.888z"/>
<path style="fill:#EF9F67;" d="M478.006,148.011l-2.878,5.068c-3.635,6.401-12.588,7.049-17.133,1.259
	c-1.192-1.518-2.398-3.027-3.619-4.523c-26.35-32.317-56.733-56.826-89.198-73.513C359.831,84.544,350.555,90,340,90
	c-16.569,0-30-13.431-30-30c0-1.379,0.101-2.733,0.281-4.063c-37.305-8.847-75.821-8.35-113.016,1.551
	C199.016,61.298,200,65.533,200,70c0,16.569-13.431,30-30,30c-13.067,0-24.177-8.357-28.291-20.015
	c-27.803,15.408-53.978,36.673-77.262,63.862c-3.569,4.167-7.02,8.426-10.361,12.766c-4.508,5.856-13.524,5.22-17.173-1.206
	l-2.928-5.156c-8.6-15.144-6.984-34.096,4.133-47.479c7.06-8.5,14.686-16.685,22.886-24.5
	C172.522-28.007,349.046-25.767,457.941,83.231c5.502,5.507,10.731,11.185,15.69,17.016
	C484.99,113.603,486.674,132.748,478.006,148.011z"/>
<path style="fill:#DE925F;" d="M83.368,123.664c-6.49,6.324-12.808,13.043-18.922,20.182c-3.569,4.167-7.02,8.426-10.361,12.766
	c-4.508,5.856-13.524,5.22-17.173-1.206l-2.928-5.156c-8.6-15.144-6.984-34.096,4.133-47.479
	c5.646-6.798,11.673-13.385,18.048-19.752C61.988,97.407,71.229,111.05,83.368,123.664z"/>
<path style="fill:#FF507D;" d="M160,152.864c-17.401-11.097-32.427-25.537-44.207-42.484l0,0c-9.12-13.68-7.316-31.895,4.309-43.52
	l0,0c12.898-12.898,33.81-12.898,46.708,0l1.907,1.907c2.324,2.324,6.093,2.324,8.417,0l1.907-1.907
	c12.898-12.898,33.81-12.898,46.708,0l0,0c11.625,11.625,13.429,29.841,4.309,43.52l0,0c-11.78,16.947-26.806,31.387-44.207,42.484
	l-9.726,6.203c-1.952,1.245-4.448,1.245-6.4,0L160,152.864z M265.75,356.86c-12.898-12.898-33.81-12.898-46.708,0l-1.907,1.907
	c-2.324,2.324-6.093,2.324-8.417,0l-1.907-1.907c-12.898-12.898-33.81-12.898-46.708,0l0,0
	c-11.625,11.625-13.429,29.841-4.309,43.52l0,0c11.78,16.947,26.806,31.387,44.207,42.484l9.726,6.203
	c1.952,1.245,4.448,1.245,6.4,0l9.726-6.203c17.401-11.097,32.427-25.537,44.207-42.484l0,0
	C279.179,386.7,277.376,368.485,265.75,356.86L265.75,356.86z M419.897,239.674L419.897,239.674
	c-12.898-12.898-33.81-12.898-46.708,0l-1.907,1.907c-2.324,2.324-6.093,2.324-8.417,0l-1.907-1.907
	c-12.898-12.898-33.81-12.898-46.708,0l0,0c-11.625,11.625-13.429,29.84-4.309,43.52l0,0c11.78,16.947,26.806,31.387,44.207,42.484
	l9.726,6.203c1.952,1.245,4.448,1.245,6.4,0l9.726-6.203c17.401-11.097,32.427-25.538,44.207-42.484l0,0
	C433.327,269.514,431.523,251.299,419.897,239.674z"/>
<path style="fill:#F13269;" d="M160,152.864c-17.401-11.097-32.427-25.538-44.207-42.484c-9.12-13.68-7.316-31.895,4.309-43.52l0,0
	c10.108-10.108,25.137-12.292,37.374-6.557c-2.371,1.62-4.631,3.47-6.736,5.575l0,0c-16.469,16.469-19.024,42.273-6.105,61.651l0,0
	c8.131,11.697,17.362,22.544,27.533,32.418c-0.854-0.109-1.689-0.4-2.443-0.881L160,152.864z M184.636,417.529L184.636,417.529
	c-12.919-19.379-10.364-45.183,6.105-61.651l0,0c2.104-2.104,4.365-3.955,6.736-5.575c-12.237-5.735-27.266-3.551-37.374,6.557l0,0
	c-11.625,11.626-13.429,29.841-4.309,43.52c11.78,16.946,26.806,31.387,44.207,42.484l9.726,6.202
	c0.754,0.481,1.59,0.771,2.443,0.881C201.998,440.073,192.767,429.226,184.636,417.529z M338.783,300.343L338.783,300.343
	c-12.919-19.379-10.364-45.183,6.105-61.651l0,0c2.104-2.104,4.365-3.955,6.736-5.575c-12.237-5.735-27.266-3.551-37.374,6.557l0,0
	c-11.625,11.625-13.429,29.841-4.309,43.52c11.78,16.947,26.806,31.387,44.207,42.484l9.726,6.202
	c0.754,0.481,1.589,0.771,2.443,0.881C356.145,322.887,346.915,312.04,338.783,300.343z"/>
<path style="fill:#FA9E39;" d="M250,280c0,11.046-8.954,20-20,20s-20-8.954-20-20s8.954-20,20-20S250,268.954,250,280z M170,200
	c-11.046,0-20,8.954-20,20s8.954,20,20,20s20-8.954,20-20S181.046,200,170,200z M360,140c-11.046,0-20,8.954-20,20s8.954,20,20,20
	s20-8.954,20-20S371.046,140,360,140z M270,140c-16.569,0-30,13.431-30,30s13.431,30,30,30s30-13.431,30-30S286.569,140,270,140z"/>
<g>
</g>
<g>
</g>
<g>
</g>
<g>
</g>
<g>
</g>
<g>
</g>
<g>
</g>
<g>
</g>
<g>
</g>
<g>
</g>
<g>
</g>
<g>
</g>
<g>
</g>
<g>
</g>
<g>
</g>
</svg>
